<?xml version="1.0" encoding="utf-8"?>
<!-- Generator: Adobe Illustrator 22.0.0, SVG Export Plug-In . SVG Version: 6.00 Build 0)  -->
<svg version="1.1" id="_x3C_レイヤー_x3E_" xmlns="http://www.w3.org/2000/svg" xmlns:xlink="http://www.w3.org/1999/xlink"
	 x="0px" y="0px" width="435.7px" height="33.7px" viewBox="0 0 435.7 33.7" style="enable-background:new 0 0 435.7 33.7;"
	 xml:space="preserve">
<style type="text/css">
	.st0{fill:#CF000E;}
	.st1{fill:#727171;}
</style>
<g>
	<path class="st0" d="M18.1,10.6C16.8,12.7,9.3,25,4.9,32.2h12c0.3-0.3,1.2-1.6,1.2-3.5L18.1,10.6z"/>
	<path class="st0" d="M0.9,32.2L0.9,32.2l0-28.1c0-1.9-0.5-3.3-0.7-3.7h17c0.7,1,1.3,2.9,0.3,4.9C16.7,6.5,2.2,30.2,0.9,32.2
		C1,32.1,1,32.2,0.9,32.2"/>
	<path class="st0" d="M35.7,24.3c0-3.3-0.7-5.2-2.9-7.1c-1.1-0.9-1.9-1.7-1.9-1.7l1.9-1.6c2.2-1.8,2.7-3.7,2.7-7V0.3H23
		C23.1,0.6,23.7,2,23.7,4v28.1h12.1L35.7,24.3L35.7,24.3z"/>
	<path class="st1" d="M405.6,5H419l-0.4-1.9c-0.1-0.4-0.4-0.7-0.9-0.7h-13.4l0.4,1.8C404.9,4.7,405.2,5,405.6,5z M261.2,4.9
		c0-0.7-0.6-0.9-1.1-1l-7.2-1.8V6l8.3,2L261.2,4.9L261.2,4.9z M257,18.7l-0.1,0.1l-6.3,14.3h4.1c1,0,1.3-1,1.4-1.2l5.9-13.3H257z
		 M261.2,12c0-0.7-0.6-0.9-1.1-1l-7.2-1.7v3.9l8.3,2L261.2,12L261.2,12z M299.9,0.6h-4.7c-1.6,4-3.3,6.8-6.2,9.4l0.1,3.2
		C289,13.2,296.4,8.5,299.9,0.6z M359.6,21.2h-2.1v-3.5c0-0.3-0.3-0.6-0.7-0.6h-10.2v-2.2H357V8.3c0-0.3-0.3-0.6-0.7-0.6h-9.8v-2
		h12.8l-0.4-1.6c-0.1-0.3-0.4-0.6-0.9-0.6h-11.5V1.8c0,0,0,0,0,0c0-0.1,0-0.4-0.1-0.7c-0.1-0.3-0.5-0.5-1-0.5h-4.5l0.1,0.3
		c0,0,0.1,0.3,0.2,0.8c0.1,0.6,0.2,0.8,0.2,1.7v0.1h-13l0.4,1.6c0.1,0.3,0.4,0.6,0.9,0.6h11.8v2h-10.9v7.2h10.9V17h-11.8l0.4,1.6
		c0.1,0.3,0.4,0.6,0.9,0.6h10.5v2h-14.6l0.4,1.6c0.1,0.3,0.4,0.6,0.8,0.6h13.3v2.1h-11.7l0.1,0.1l0.4,1.5c0.1,0.3,0.4,0.6,0.9,0.6
		h10.4V30c0,0.4-0.3,0.7-0.7,0.7h-4.2l0.8,2.4l6.9,0c1.7,0,2.3-0.8,2.3-2.4c0,0,0-0.7,0-0.7v-2.4h10.9v-4.3h3.4l-0.4-1.6
		C360.4,21.4,360,21.2,359.6,21.2z M346.6,9.8h6v2.8h-6V9.8z M341.5,12.6H335V9.8h6.5V12.6z M352.7,25.4h-6.1v-2.1h6.1V25.4z
		 M352.7,21.2h-6.1v-2h6.1V21.2z M280.6,22h-4.4l2.4,5.9l-10.4,0.9l5-10.5h10.6l-0.4-2c-0.1-0.4-0.5-0.7-0.9-0.7H275V9.1h8.2l-0.4-2
		c-0.1-0.4-0.4-0.7-0.9-0.7h-7V1.9c0,0,0,0,0-0.1c0-0.1,0-0.4-0.1-0.6s-0.5-0.5-1-0.5h-4.6l0.1,0.3c0,0,0.1,0.3,0.2,0.8
		c0.1,0.6,0.2,1.3,0.2,2.4v2.3h-6.8l0.4,2c0.1,0.4,0.4,0.7,0.9,0.7h5.6v6.4h-8.7l0.4,2c0.1,0.4,0.5,0.7,0.9,0.7h5.6l-5,11l-1.9,0.2
		l0.1,0.3c0,0,0.1,0.5,0.3,1.1c0.2,0.5,0.5,1.1,1.2,1.2c0,0,0,0,0,0c0.8-0.1,11.8-1,17.1-1.5l1.2,2.7h5l-4.4-10.5
		C281.3,22.2,281,22,280.6,22z M395.5,5.8h1.9l-0.1-0.3L397,4.1c-0.1-0.4-0.4-0.7-0.9-0.7h-8.8c0.6-1.4,0.8-2.3,0.8-2.4l0.1-0.3H384
		l0,0.2c-0.6,3.6-2.9,7.5-3.9,8.8l-0.3,0.4h3.6l0.1-0.1c0.3-0.3,0.7-1,0.9-1.3c0.7,1.1,1.3,2.1,2.4,3.6c-1.5,1.2-3.1,2.2-4.6,2.7
		c0.4-1.1,0.6-1.9,0.6-1.9l0-0.3h-3.6v-1.2c0-0.7-0.5-1-1-1.4l-1.2-0.6c2.5-2.3,3.9-4,5.3-6.2l0,0l0.1-1.3l-15.6-0.1l0.4,1.7
		c0.1,0.4,0.4,0.6,0.8,0.7h8.8c-0.8,1.1-2,2.3-3.3,3.6l-4.6-2.5v3.6l7.2,3.8h-10.3l0.4,1.7c0.1,0.4,0.4,0.6,0.8,0.7h3.8
		c-1,2.8-3.3,8.5-5.5,11.7l2.8,0c0,0,2.5-3.4,4.3-7v9.2l0,0V30c0,0.3-0.3,0.6-0.7,0.6h-2.6l0.8,2.4l4.2,0c1.7,0,2.3-0.8,2.4-2.4
		v-9.4h2.1l0.1,0c0.4-0.3,0.7-0.9,1-1.3l0.3,1.3c0.1,0.4,0.4,0.7,0.9,0.7h3v0.6c0,2.8-1.2,6.3-4.3,8.3l-0.1,0.1v1.8l0.3-0.1
		c5.2-1.2,8.4-6.5,8.4-10.2v-0.6h2.9l0,6.2c0,1.4-0.7,2.1-1.6,2.1h-2.5l1.1,2.4h3.3c1.3,0,2.4-0.5,3.2-1.4c0.7-1,1.1-2.4,1.1-4.3
		l0-7.4h-7.4v-3.2l-3.2,0.1c1.4-0.5,2.6-1.1,3.7-1.9c2.2,1.9,4.9,3.2,8.8,3.8l0-1.9c-3.2-1.1-5.1-2.3-6.6-3.8
		C393.1,10.5,394.5,8.1,395.5,5.8z M376.6,20.5v-5.2h2.3C378.5,17.2,377.7,18.8,376.6,20.5z M383.9,19.5h-3.7
		c0.5-0.7,0.9-1.5,1.3-2.3l0.7-0.1c0.6-0.1,1.2-0.3,1.8-0.4L383.9,19.5L383.9,19.5z M387.1,5.8h4.3c-0.3,1.3-1,3.1-2.2,4.3
		C388.3,9,387.4,7,387.1,5.8z M320.1,4.7c0-0.4-0.3-0.7-0.7-0.7c0,0,0,0-0.1,0h-6.8V1.8c0-0.1,0-0.4-0.1-0.6c-0.1-0.3-0.5-0.5-1-0.5
		h-4.1l0.1,0.3c0,0,0.1,0.3,0.2,0.8c0.1,0.6,0.2,1.2,0.2,2.2v0.1h-7.5l0.4,1.9c0.1,0.4,0.4,0.6,0.9,0.6h6.2v3.2h-7.9
		c0.2-0.6,0.4-1.1,0.6-1.7H296c-1.9,5.9-6.8,10.7-7.1,10.9l0.1,3c0,0,1.9-1.1,4.1-3.2V33h3.8c0.4,0,0.7-0.3,0.7-0.7V13.7
		c0.3-0.5,0.7-1,1-1.6h9.2V15h-7.5l0.4,1.9c0.1,0.4,0.4,0.6,0.9,0.6h6.2v2.8h-7.5l0.4,1.9c0.1,0.4,0.4,0.6,0.9,0.6h6.2v2.3h-9.1
		l0.4,1.9c0.1,0.4,0.4,0.6,0.9,0.6h7.9V33h4c0.4,0,0.7-0.3,0.7-0.7v-4.8h9.5l-0.4-1.9c-0.1-0.4-0.4-0.6-0.9-0.6h-8.3v-2.3h8.4
		l-0.4-1.9c-0.1-0.4-0.4-0.6-0.9-0.6h-7.1v-2.8h7.5v-5.3h2.6V9.7h-2.6L320.1,4.7L320.1,4.7z M316,15h-3.4v-2.8h3.4V15z M316,9.7
		h-3.4V6.5h3.4V9.7z M433,10.6h2.6l-0.4-1.7c-0.1-0.4-0.4-0.6-0.8-0.7h-9.5V7.3c1.8-1.6,4.8-4.3,6.3-6.2l0.3-0.4h-6.6l-0.1,0.1
		c-2,2.5-4.7,5.4-4.7,5.4L420,6.3l0.1,9.2c0,6.5-0.9,10.5-1.9,12.9c-0.4,1.2-0.9,2-1.3,2.4c-0.2,0.2-0.3,0.4-0.4,0.5
		c-0.1,0.1-0.1,0.1-0.1,0.1l-0.1,0.1v1.7l0.3-0.1c6.8-3.9,8.2-12.2,8.2-17.7v-4.9h3.5v19c0,2-0.4,3.2-0.4,3.2l-0.1,0.3h4
		c0.5,0,0.8-0.2,1-0.5c0.1-0.3,0.1-0.5,0.1-0.6c0,0,0-0.1,0-0.1L433,10.6L433,10.6z M418.1,8.9c0-0.4-0.3-0.7-0.7-0.7h-12.2v12.8
		c0,5.5-0.6,8.1-2.1,10.3l0,0.1v2.1l0.4-0.2c0,0,6-3.8,6.5-12.5h8.2V8.9z M413.4,18.2H410v-7.6h3.5V18.2z M142.1,13.2h-26.6l0.9,3.3
		c0.1,0.5,0.5,0.9,0.7,0.9h26.6l-0.9-3.3C142.7,13.5,142.3,13.2,142.1,13.2z M93.7,20.8c0.3,0,0.5-0.2,0.5-0.5V2.7c0,0,0.1-1-0.9-1
		h-5c0,0,0.4,1.2,0.4,3.2v15.8H93.7z M108.9,1.7h-5.3c0,0,0.4,1.2,0.4,3.2c0,0,0,8.2,0,12.4c0,6.7-5.6,11.4-13.1,12.7v3.1
		c0,0,18.9-1,18.9-16.9l0-13.6C109.8,2.7,109.9,1.7,108.9,1.7z M173.2,9.1L172.1,2h-3.7l1.1,7.1H173.2z M178.8,9.1L177.8,2H174
		l1.1,7.1H178.8z M162.2,4.7h-4.6l-10.7,16.2h5.5l7.8-12.1l14.3,22.8h7L166,7.1C165.2,5.9,164.5,4.7,162.2,4.7z M64,4.7h-4.6
		L48.7,20.9h5.4L62,8.7l14.3,22.8h7L67.8,7.1C67.1,5.9,66.3,4.7,64,4.7z M74.9,9.1L73.8,2h-3.7l1.1,7.1H74.9z M80.5,9.1L79.4,2h-3.7
		l1.1,7.1H80.5z M210.4,5.5c0.2-0.8-0.3-1.5-1.2-1.5l-22.2,0l0.6,3c0.2,0.5,0.5,0.9,0.8,0.9h15c-2.1,7.8-7.8,17.8-18.3,22.2l0,2.6
		c7.6-1.4,12.7-4.8,16.9-9.7l0.3-0.4l6.3,9.4h4.8c0.7,0,2.4,0,2.4,0l-9.9-14.3C209.3,12.5,210.4,5.5,210.4,5.5z M228.9,2.8
		c0,0,0.1-1-0.9-1h-5.4c0,0,0.4,1.2,0.4,3.2v27.8h5.4c0.3,0,0.5-0.2,0.5-0.5V17.9l15.3,3.8v-5.3L229,12.3L228.9,2.8z"/>
</g>
</svg>
