<svg xmlns="http://www.w3.org/2000/svg" width="758" height="758" viewBox="0 0 758 758">
  <defs>
    <style>
      .cls-1 {
        fill: #fff;
        fill-rule: evenodd;
      }
    </style>
  </defs>
  <path id="シェイプ_2" data-name="シェイプ 2" class="cls-1" d="M88.138,226.534v0.008c-0.137,6.841,2.559,12.7,5.118,18.7,45.35,105.834,75.833,181.278,119.355,287.949,11.606,28.441,19.955,49.985,39,63.02,17.168,11.786,36.728,7.321,56.746,5.188q57.879-6.194,115.774-12.357,21.32-2.284,42.655-4.556,3.816-.411,7.632-0.815c14.761-1.577,29.827-14.041,30.422-30.184,1.92-5.606,1.644-12.333-1.357-19.312L358.762,196.283c-7.236-16.852-27.39-29.118-44.893-27.243L119.733,189.754a25.53,25.53,0,0,0-12.66,4.707c0.062-.075.107-0.159,0.168-0.235-0.06.084-.136,0.175-0.2,0.267-2.849,2.111-6.993,5.119-8.44,8.257C92.587,209.98,88.46,217.552,88.138,226.534ZM372.229,525.3c8.439-.86,18.158,4.748,21.677,12.472,3.533,7.747-.457,14.733-8.9,15.587-8.455.862-18.235-4.739-21.769-12.487C359.737,533.158,363.79,526.148,372.229,525.3ZM136.308,230.26l195.521-20.875L450.3,485.856,254.764,506.722Zm503.559,35.395a216.51,216.51,0,0,1,2.787,112.691l20.779,5.059A238.535,238.535,0,0,0,595.673,154l-14.715,15.512A216.621,216.621,0,0,1,639.867,265.655ZM535.44,204.647l-14.716,15.542a154.215,154.215,0,0,1,43.843,148.375l20.778,5.074A175.61,175.61,0,0,0,535.44,204.647ZM486.42,358.759l20.779,5.05a112.345,112.345,0,0,0-32.036-108.47l-14.716,15.526A90.932,90.932,0,0,1,486.42,358.759Z"/>
</svg>
